<!DOCTYPE svg PUBLIC "-//W3C//DTD SVG 1.1//EN" "http://www.w3.org/Graphics/SVG/1.1/DTD/svg11.dtd">
<!-- Uploaded to: SVG Repo, www.svgrepo.com, Transformed by: SVG Repo Mixer Tools -->
<svg fill="#ffffff" width="800px" height="800px" viewBox="0 0 64 64" version="1.1" xmlns="http://www.w3.org/2000/svg" xmlns:xlink="http://www.w3.org/1999/xlink" xml:space="preserve" xmlns:serif="http://www.serif.com/" style="fill-rule:evenodd;clip-rule:evenodd;stroke-linejoin:round;stroke-miterlimit:2;">
<g id="SVGRepo_bgCarrier" stroke-width=""/>
<g id="SVGRepo_tracerCarrier" stroke-linecap="round" stroke-linejoin="round"/>
<g id="SVGRepo_iconCarrier"> <rect id="Icons" x="-64" y="-64" width="128" height="8" style="fill:none;"/> <g id="Icons1" serif:id="Icons"> <g id="Strike"> </g> <g id="H1"> </g> <g id="H2"> </g> <g id="H3"> </g> <g id="list-ul"> </g> <g id="hamburger-1"> </g> <g id="hamburger-2"> </g> <g id="list-ol"> </g> <g id="list-task"> </g> <g id="trash"> </g> <g id="vertical-menu"> </g> <g id="horizontal-menu"> </g> <g id="sidebar-2"> </g> <g id="Pen"> </g> <g id="Pen1" serif:id="Pen"> </g> <g id="clock"> </g> <g id="external-link"> </g> <g id="hr"> </g> <g id="info"> </g> <g id="warning"> <path d="M32.427,7.987c2.183,.124 4,1.165 5.96,3.281l17.936,36.28c1.739,3.66 -.954,8.585 -5.373,8.656l-36.119,c-4.22,-.64 -7.322,-4.631 -5.352,-8.696l18.271,-36.27c.342,-.65 .498,-.838 .793,-1.179c1.186,-1.375 2.483,-2.111 4.748,-2.63Zm-.295,3.997c-.687,.34 -1.316,.419 -1.659,1.17c-6.312,11.979 -12.397,24.81 -18.31,36.267c-.546,1.225 .391,2.797 1.762,2.863c12.6,.195 24.125,.195 36.185,c1.325,-.64 2.321,-1.584 1.769,-2.85c-5.793,-12.184 -11.765,-24.286 -17.966,-36.267c-.366,-.651 -.93,-1.42 -1.79,-1.3Z" style="fill-rule:nonzero;"/> <path d="M33.631,4.581l-3.348,l-.368,-16.449l4.1,l-.384,16.449Zm-3.828,5.3c,-.69 .197,-1.113 .592,-1.514c.396,-.4 .935,-.61 1.618,-.61c.684, 1.223,.21 1.618,.61c.395,.41 .593,.95 .593,1.514c,.587 -.193,1.78 -.577,1.473c-.385,.395 -.929,.593 -1.634,.593c-.75, -1.249,-.198 -1.634,-.593c-.384,-.395 -.576,-.886 -.576,-1.473Z" style="fill-rule:nonzero;"/> </g> <g id="plus-circle"> </g> <g id="minus-circle"> </g> <g id="vue"> </g> <g id="cog"> </g> <g id="logo"> </g> <g id="radio-check"> </g> <g id="eye-slash"> </g> <g id="eye"> </g> <g id="toggle-off"> </g> <g id="shredder"> </g> <g id="spinner--loading--dots-" serif:id="spinner [loading, dots]"> </g> <g id="react"> </g> <g id="check-selected"> </g> <g id="turn-off"> </g> <g id="code-block"> </g> <g id="user"> </g> <g id="coffee-bean"> </g> <g id="coffee-beans"> <g id="coffee-bean1" serif:id="coffee-bean"> </g> </g> <g id="coffee-bean-filled"> </g> <g id="coffee-beans-filled"> <g id="coffee-bean2" serif:id="coffee-bean"> </g> </g> <g id="clipboard"> </g> <g id="clipboard-paste"> </g> <g id="clipboard-copy"> </g> <g id="Layer1"> </g> </g> </g>
</svg>